<svg width="205" height="205" viewBox="0 0 205 205" fill="none" xmlns="http://www.w3.org/2000/svg">
<g clip-path="url(#clip0_293_4274)">
<path d="M205 0H0V205H205V0Z" fill="#1326FD"/>
<path d="M79.5656 67.1621H53.5703V172.278H79.5656V67.1621Z" fill="white"/>
<path d="M161.086 73.1733C161.086 50.8685 142.922 32.7217 120.595 32.7217H53.5703V55.1699H117.409C127.513 55.1699 135.882 63.1081 136.067 72.8643C136.16 77.7494 134.326 82.3599 130.905 85.8459C127.482 89.3335 122.909 91.2551 118.028 91.2551H93.1599C92.2769 91.2551 91.5583 91.9726 91.5583 92.8554V112.807C91.5583 113.146 91.6632 113.47 91.8605 113.744L134.053 172.279H164.939L122.648 113.584C143.946 112.514 161.086 94.6199 161.086 73.1733Z" fill="white"/>
</g>
<defs>
<clipPath id="clip0_293_4274">
<rect width="205" height="205" rx="12" fill="white"/>
</clipPath>
</defs>
</svg>
